<svg id="Layer_1" data-name="Layer 1" xmlns="http://www.w3.org/2000/svg" viewBox="0 0 215.04 87.12"><defs><style>.cls-1{fill:#81d887}.cls-2{fill:#8ea6a7}</style></defs><title>logosoft</title><path class="cls-1" d="M201.69 71.53h5.09c1.72 0 4.8 0 6.79 2.87a7.84 7.84 0 0 1 1.43 4.78c0 4.19-2.08 7.72-7.91 7.72h-5.38zm3.93 11.92h1.68c2.93 0 3.76-2 3.76-4.21a5.46 5.46 0 0 0-.75-2.85 3.25 3.25 0 0 0-3-1.41h-1.7zm-32.98-11.92h3.39l5.93 9.66.04-.04-.16-9.62h3.76V86.9h-3.41l-5.85-9.34-.05.02.11 9.32h-3.76V71.53zm-26.4 13.12l-.84 2.26h-4.22l6.4-15.39h3.1l5.87 15.34h-4.26l-.71-2.18zm1.13-3.1h3.22l-1.5-5.28H149zm-30.75-10.02h3.92v11.92h4.55v3.45h-8.47V71.53zm-24.63 0h8.53v3.45h-4.77v2.39h4.63v3.45h-4.63v2.63h4.77v3.45h-8.53V71.53zm-27.93 0h4.86c2.7 0 3.73.34 4.73 1.11a5.29 5.29 0 0 1 1.89 4.19 4.67 4.67 0 0 1-3.82 4.84l4.17 5.23h-4.48l-3.55-5v5h-3.8zm3.76 7.73h1.39c2.3 0 2.57-1.45 2.57-2.2 0-1.39-1-2.08-2.53-2.08h-1.43zm-30.28 5.4l-.81 2.24h-4.25l6.21-15.48h3.12L48 86.9h-4.33l-.75-2.24zm1.09-3.14h3.25l-1.59-5.29h-.07zm-34.6-10.1l2.08 10.06h.04l2.28-10.06h3.03l2.24 10.1h.04l2.12-10.1h3.99l-4.1 15.48h-3.47L9.96 76.88h-.05L7.59 86.9H4.01L.02 71.42h4.01z"/><path class="cls-2" d="M29 19.37c-.34-2.09-.84-6-5.67-6-2.75 0-5.41 1.91-5.41 4.83 0 3.66 1.66 4.41 12.74 9.41 11.5 5.17 14.41 10.5 14.41 17.66 0 9-5.16 18.91-21.49 18.91-17.84 0-22.26-11.66-22.26-19.57v-2H17c0 7.16 4.4 8.39 6.39 8.39a5.94 5.94 0 0 0 6-5.91C29.39 41 26.81 40 17.31 36 13 34.28 2.24 30 2.24 18.37S13.48.21 23.81.21c6.08 0 12.66 2.25 16.66 7 3.67 4.5 3.92 8.67 4.08 12.17zM127.76.21h34.92v14.35h-19.27v10.89h18.58V39.8h-18.58v24.37h-15.65V.21zm57.05 14.35h-12.62V.21h41.49v14.35h-12.54v49.61h-16.33V14.56z"/><path class="cls-1" d="M76.13 21.85l12.75 23.38 8-10.59 13.72 18.29a31.85 31.85 0 1 0-50.54-2.81z"/></svg>